<svg
    height="512pt"
    viewBox="0 0 512.00153 512"
    width="512pt"
    xmlns="http://www.w3.org/2000/svg">
    <path d="m273.222656 492.359375c-1.722656-10.910156 5.726563-21.148437 16.648438-22.867187 10.910156-1.722657 21.140625 5.726562 22.871094 16.640624 1.707031 10.90625-5.742188 21.148438-16.652344 22.867188-1.050782.171875-2.097656.25-3.128906.25-9.679688 0-18.179688-7.039062-19.738282-16.890625zm-57.210937 16.320313c-10.910157-1.726563-18.351563-11.96875-16.621094-22.890626 1.730469-10.898437 11.980469-18.347656 22.878906-16.609374 10.910157 1.722656 18.351563 11.972656 16.621094 22.882812-1.558594 9.847656-10.058594 16.867188-19.71875 16.867188-1.050781 0-2.101563-.078126-3.160156-.25zm-76.191407-24.546876c-9.859374-4.992187-13.800781-17.03125-8.808593-26.882812 5-9.851562 17.027343-13.789062 26.878906-8.800781 9.859375 4.992187 13.800781 17.023437 8.808594 26.871093-3.527344 6.960938-10.558594 10.96875-17.859375 10.96875-3.039063 0-6.128906-.6875-9.019532-2.15625zm-111.96875-111.871093c-5.019531-9.851563-1.109374-21.890625 8.730469-26.910157 9.839844-5.011718 21.890625-1.101562 26.898438 8.738282 5.019531 9.839844 1.109375 21.882812-8.730469 26.902344-2.910156 1.476562-6.007812 2.1875-9.058594 2.1875-7.289062 0-14.3125-3.988282-17.839844-10.917969zm-24.679687-76.222657c-1.722656-10.917968 5.730469-21.148437 16.640625-22.867187 10.910156-1.722656 21.148438 5.726563 22.867188 16.640625 1.722656 10.910156-5.730469 21.148438-16.640626 22.867188-1.058593.171874-2.097656.25-3.136718.25-9.671875-.007813-18.179688-7.039063-19.730469-16.890626zm16.570313-57.199218c-10.910157-1.71875-18.371094-11.949219-16.660157-22.859375 1.71875-10.917969 11.949219-18.371094 22.867188-16.660157 10.910156 1.722657 18.363281 11.949219 16.652343 22.859376-1.550781 9.859374-10.0625 16.902343-19.742187 16.902343-1.027344 0-2.070313-.082031-3.117187-.242187zm403.257812-169.839844c-11.046875 0-20 8.953125-20 20s8.953125 20 20 20 20-8.953125 20-20-8.953125-20-20-20zm-335 335c-11.046875 0-20 8.953125-20 20s8.953125 20 20 20 20-8.953125 20-20-8.953125-20-20-20zm48.96875-396.84375-21.253906 20.84375h-100.476563c-4-.441406-7.988281 1.167969-10.832031 4.011719-6.917969 6.910156-4.238281 18.671875 4.992188 21.902343l62.828124 17.976563-37.621093 38.109375h-26.207031c-2.242188-.101562-4.429688.660156-6.023438 2.242188-3.15625 3.128906-3.167969 8.230468-.023438 11.375l46.046876 45.945312c3.136718 3.132812 8.21875 3.132812 11.355468 0l.667969-.671875c1.566406-1.566406 1.644531-3.707031 1.578125-5.921875v-25.601562l38.460938-37.148438 17.9375 62.8125c3.234374 9.21875 14.988281 11.898438 21.894531 4.992188v-.003907c2.859375-2.855469 4.164062-6.859375 3.707031-10.871093v-100.242188l21.253906-21.464844c7.980469-7.980468 10.09375-22.433594 2.113282-30.414062-7.980469-7.980469-22.417969-5.851563-30.398438 2.128906zm238.0625 497.6875 21.253906-20.84375h100.480469c4 .445312 7.984375-1.164062 10.832031-4.011719 6.917969-6.90625 4.234375-18.671875-4.992187-21.898437l-62.828125-17.976563 37.621094-38.113281h26.203124c2.246094.105469 4.429688-.65625 6.023438-2.238281 3.160156-3.132813 3.167969-8.234375.023438-11.378907l-46.046876-45.941406c-3.132812-3.136718-8.21875-3.136718-11.355468 0l-.667969.667969c-1.566406 1.566406-1.644531 3.710937-1.578125 5.921875v25.605469l-38.460938 37.144531-17.9375-62.8125c-3.234374-9.21875-14.984374-11.894531-21.890624-4.988281l-.003907.003906c-2.855469 2.855469-4.160156 6.855469-3.707031 10.871094v100.238281l-21.25 21.46875c-7.980469 7.980469-10.097656 22.429688-2.113281 30.414062 7.980469 7.980469 22.414062 5.851563 30.394531-2.132812zm-20.929688-441.292969c-9.851562-4.988281-13.789062-17.03125-8.800781-26.878906 4.988281-9.859375 17.03125-13.789063 26.878907-8.800781 9.851562 4.988281 13.792968 17.019531 8.800781 26.878906-3.519531 6.949219-10.550781 10.960938-17.851563 10.960938-3.039062 0-6.128906-.691407-9.027344-2.160157zm-64.378906-20.730469c-10.910156-1.730468-18.34375-11.980468-16.613281-22.890624 1.730469-10.910157 11.972656-18.351563 22.882813-16.621094 10.910156 1.742187 18.347656 11.980468 16.617187 22.890625-1.558594 9.851562-10.058594 16.871093-19.730469 16.871093-1.039062 0-2.097656-.078124-3.15625-.25zm-90.460937-16.960937c-1.722657-10.910156 5.738281-21.148437 16.648437-22.859375 0 0 0 0 0-.007812 10.910156-1.722657 21.152344 5.738281 22.871094 16.648437s-5.742188 21.148437-16.652344 22.871094c-1.046875.167969-2.097656.25-3.128906.25-9.679688-.011719-18.179688-7.039063-19.738281-16.902344zm286.789062 286.820313c-10.910156-1.71875-18.371093-11.949219-16.648437-22.867188 1.71875-10.910156 11.949218-18.359375 22.859375-16.652344 10.910156 1.722656 18.367187 11.949219 16.660156 22.859375-1.550781 9.863281-10.0625 16.902344-19.742187 16.902344-1.027344 0-2.078126-.082031-3.128907-.242187zm-16.730469-90.488282c-1.71875-10.910156 5.730469-21.152344 16.640626-22.871094 10.910156-1.71875 21.148437 5.730469 22.871093 16.640626 1.71875 10.910156-5.742187 21.148437-16.652343 22.871093-1.050782.167969-2.097657.25-3.128907.25-9.671875 0-18.179687-7.042969-19.730469-16.890625zm-20.808593-64.28125c-5.011719-9.839844-1.101563-21.878906 8.738281-26.898437s21.878906-1.109375 26.902344 8.730469v.007812c5.019531 9.839844 1.109375 21.882812-8.730469 26.898438-2.910156 1.480468-6.011719 2.183593-9.070313 2.183593-7.28125 0-14.300781-3.992187-17.839843-10.921875zm0 0"/>
</svg>